<svg xmlns="http://www.w3.org/2000/svg" viewBox="-10 -5 1034 1034">
  <path
     d="m 507.88528,-3.2979452 q -139.67311,0 -261.12799,70.4438282 Q 130.16061,136.37517 62.145883,252.97184 -8.2979452,373.21217 -8.2979452,513.49254 q 0,140.28039 70.4438282,260.52072 68.014727,116.59667 184.611407,184.6114 121.45488,70.44384 261.12799,70.44384 139.6731,0 261.12798,-70.44384 116.59667,-68.01473 184.6114,-184.6114 70.44384,-120.24033 70.44384,-260.52072 0,-140.28037 -70.44384,-260.5207 Q 885.60993,136.37517 769.01326,67.145883 647.55838,-3.2979452 507.88528,-3.2979452 Z M 425.29596,311.27018 h 136.02945 q 43.72377,0 80.7675,21.25461 37.04373,21.2546 58.90561,57.08379 21.86189,35.82918 21.86189,78.94567 0,43.11647 -21.86189,78.94566 -21.86188,35.82919 -58.90561,57.0838 -37.04373,21.25459 -80.7675,21.25459 H 466.59062 L 331.7757,754.58048 V 402.36134 q 0,-37.65101 27.32735,-64.37109 27.32735,-26.72007 66.19291,-26.72007 z" />
</svg>
