<svg xmlns="http://www.w3.org/2000/svg" viewBox="0 0 8 8">
	<rect width="8" height="8" rx="1.5" fill="#6610f2" />
	<g transform="matrix(0.0275,0,0,0.0275,-8.4514499,-5.5585101)">
		<path d="m 341.3,315 v 17.2 h 12.2 19.7 l 9.2,36.3 h 1.3 l 10.9,-36.3 h 15.8 l 10.9,36.3 h 1.4 l 9,-36.3 h 18.6 6.8 l 8.4,-17.2 h 9.8 v 17.2 h 14.6 19.4 l 7.3,20.3 h 1.2 l 6.4,-20.3 h 19.1 8.6 l 8.4,-17.2 h 9.8 v 17.2 H 581 V 344 h -10.9 v 28.3 H 581 V 384 h -17.6 q -5.8,0 -8.65,-2.6 -2.85,-2.6 -2.85,-9.3 V 344 H 538.887 L 533.8,357.6 545,384 h -20.9 l -7.3,-20.5 h -1.2 L 507.2,384 H 487.6 L 500,357.6 494.592,344 H 475.3 v 28.3 h 10.9 V 384 h -17.6 q -5.8,0 -8.65,-2.6 -2.85,-2.6 -2.85,-9.3 V 344 h -10.65 l -13.05,40 h -21.3 l -9.7,-31.9 h -1 L 391.6,384 H 370.4 L 357.35,344 H 341.3 v 28.3 h 10.9 V 384 h -17.6 q -5.8,0 -8.65,-2.6 -2.85,-2.6 -2.85,-9.3 V 344 h -5.2 v -11.8 h 5.2 l 8.4,-17.2 z" fill="#ffc107" />
	</g>
</svg>
