<svg xmlns="http://www.w3.org/2000/svg" aria-hidden="true" style="width: 0; height: 0; position: absolute;"><symbol id="icon-clipboard" viewBox="0 0 384 512"><path d="M280 64h40c35.3 0 64 28.7 64 64v320c0 35.3-28.7 64-64 64H64c-35.3 0-64-28.7-64-64V128c0-35.3 28.7-64 64-64h49.6C121 27.5 153.3 0 192 0s71 27.5 78.4 64zM64 112c-8.8 0-16 7.2-16 16v320c0 8.8 7.2 16 16 16h256c8.8 0 16-7.2 16-16V128c0-8.8-7.2-16-16-16h-16v24c0 13.3-10.7 24-24 24H104c-13.3 0-24-10.7-24-24v-24zm128-8a24 24 0 1 0 0-48 24 24 0 1 0 0 48"></path></symbol><symbol id="icon-dark-toggle" viewBox="0 0 455 455"><path d="m320.18 162.7-39.55 8.35 27.09 30-4.28 40.19 36.9-16.49 36.9 16.49-4.28-40.19 27.09-30-39.55-8.35-20.16-35.03zM440 325.68l-25.91-5.47-13.21-22.96-13.2 22.96-25.91 5.47 17.74 19.65-2.8 26.33 24.17-10.8 24.18 10.8-2.81-26.33z"></path><path d="M218 227.5c0-89.167 51.306-166.34 126-203.64C313.443 8.6 278.978 0 242.5 0 116.86 0 15 101.86 15 227.5S116.86 455 242.5 455c36.478 0 70.943-8.6 101.5-23.86-74.694-37.302-126-114.47-126-203.64"></path></symbol><symbol id="icon-facebook" viewBox="0 0 320 512"><path d="M80 299.3V512h116V299.3h86.5l18-97.8H196v-34.6c0-51.7 20.3-71.5 72.7-71.5 16.3 0 29.4.4 37 1.2V7.9C291.4 4 256.4 0 236.2 0 129.3 0 80 50.5 80 159.4v42.1H14v97.8z"></path></symbol><symbol id="icon-flickr" viewBox="0 0 448 512"><path d="M400 32H48C21.5 32 0 53.5 0 80v352c0 26.5 21.5 48 48 48h352c26.5 0 48-21.5 48-48V80c0-26.5-21.5-48-48-48M144.5 319c-35.1 0-63.5-28.4-63.5-63.5s28.4-63.5 63.5-63.5 63.5 28.4 63.5 63.5-28.4 63.5-63.5 63.5m159 0c-35.1 0-63.5-28.4-63.5-63.5s28.4-63.5 63.5-63.5 63.5 28.4 63.5 63.5-28.4 63.5-63.5 63.5"></path></symbol><symbol id="icon-github" viewBox="0 0 496 512"><path d="M165.9 397.4c0 2-2.3 3.6-5.2 3.6-3.3.3-5.6-1.3-5.6-3.6 0-2 2.3-3.6 5.2-3.6 3-.3 5.6 1.3 5.6 3.6m-31.1-4.5c-.7 2 1.3 4.3 4.3 4.9 2.6 1 5.6 0 6.2-2s-1.3-4.3-4.3-5.2c-2.6-.7-5.5.3-6.2 2.3m44.2-1.7c-2.9.7-4.9 2.6-4.6 4.9.3 2 2.9 3.3 5.9 2.6 2.9-.7 4.9-2.6 4.6-4.6-.3-1.9-3-3.2-5.9-2.9M244.8 8C106.1 8 0 113.3 0 252c0 110.9 69.8 205.8 169.5 239.2 12.8 2.3 17.3-5.6 17.3-12.1 0-6.2-.3-40.4-.3-61.4 0 0-70 15-84.7-29.8 0 0-11.4-29.1-27.8-36.6 0 0-22.9-15.7 1.6-15.4 0 0 24.9 2 38.6 25.8 21.9 38.6 58.6 27.5 72.9 20.9 2.3-16 8.8-27.1 16-33.7-55.9-6.2-112.3-14.3-112.3-110.5 0-27.5 7.6-41.3 23.6-58.9-2.6-6.5-11.1-33.3 2.6-67.9 20.9-6.5 69 27 69 27 20-5.6 41.5-8.5 62.8-8.5s42.8 2.9 62.8 8.5c0 0 48.1-33.6 69-27 13.7 34.7 5.2 61.4 2.6 67.9 16 17.7 25.8 31.5 25.8 58.9 0 96.5-58.9 104.2-114.8 110.5 9.2 7.9 17 22.9 17 46.4 0 33.7-.3 75.4-.3 83.6 0 6.5 4.6 14.4 17.3 12.1C428.2 457.8 496 362.9 496 252 496 113.3 383.5 8 244.8 8M97.2 352.9c-1.3 1-1 3.3.7 5.2 1.6 1.6 3.9 2.3 5.2 1 1.3-1 1-3.3-.7-5.2-1.6-1.6-3.9-2.3-5.2-1m-10.8-8.1c-.7 1.3.3 2.9 2.3 3.9 1.6 1 3.6.7 4.3-.7.7-1.3-.3-2.9-2.3-3.9-2-.6-3.6-.3-4.3.7m32.4 35.6c-1.6 1.3-1 4.3 1.3 6.2 2.3 2.3 5.2 2.6 6.5 1 1.3-1.3.7-4.3-1.3-6.2-2.2-2.3-5.2-2.6-6.5-1m-11.4-14.7c-1.6 1-1.6 3.6 0 5.9s4.3 3.3 5.6 2.3c1.6-1.3 1.6-3.9 0-6.2-1.4-2.3-4-3.3-5.6-2"></path></symbol><symbol id="icon-hackernews" viewBox="0 0 448 512"><path d="M448 96c0-35.3-28.7-64-64-64H64C28.7 32 0 60.7 0 96v320c0 35.3 28.7 64 64 64h320c35.3 0 64-28.7 64-64zM21 229.2s.1-.1.1-.2.1-.2.2-.2c0 .1 0 .3-.1.4zM239.2 384h-31.4V281.3L128 128h37.3c41.5 77.7 48.1 95.8 54.1 112 1.6 4.3 3.1 8.5 5.2 13.6 3.2-7 5.1-11.9 7.1-17.3 5.9-15.3 12.8-33.2 53.5-108.3H320l-80.8 155.1z"></path></symbol><symbol id="icon-json-feed" viewBox="0 0 512 512"><rect width="512" height="512" fill="#8be028" rx="15%"></rect><g fill="#fff"><circle cx="386.53" cy="125.5" r="27.5"></circle><circle cx="326.53" cy="185.5" r="27.5"></circle><circle cx="266.53" cy="245.5" r="27.5"></circle></g><path fill="#497715" d="M118 96s-53.5 42-52.5 87c.6 25.2 22.5 45 39.5 64s41 32 46 59c3 16-10 22-19 35-10.7 15.4 7 32 7 32s16.6 17.7 32 7c13-9 19-22 35-19 27 5 40 29 59 46s38.8 38.9 64 39.5c45 1 87-52.5 87-52.5l-29-29s-23 27-43 27c-45.5-8.6-61.1-59.5-100-77-29-12-45.7 12.6-53 6-6.6-7.3 18-24 6-53-17.5-38.9-68.4-54.5-77-100 0-20 27-43 27-43z"></path></symbol><symbol id="icon-light-toggle" viewBox="0 0 612 612"><path d="M306 149.34c-86.382 0-156.66 70.278-156.66 156.66S219.618 462.66 306 462.66 462.66 392.382 462.66 306c0-86.384-70.278-156.66-156.66-156.66M274.19 117.28h63.612c5.032 0 9.356-2.101 11.863-5.763 2.508-3.662 2.9-8.453 1.079-13.146L315.745 8.259c-2.789-7.184-7.305-8.256-9.749-8.256s-6.96 1.073-9.749 8.255l-35 90.114c-1.821 4.692-1.427 9.482 1.079 13.145s6.832 5.763 11.864 5.763M337.81 494.72h-63.612c-5.032 0-9.357 2.102-11.863 5.764s-2.9 8.453-1.079 13.145l34.999 90.114c2.789 7.182 7.305 8.254 9.749 8.254s6.96-1.072 9.749-8.254l34.999-90.115c1.821-4.69 1.429-9.48-1.079-13.144-2.507-3.662-6.831-5.764-11.863-5.764M127.54 190.82c2.412 5.477 7.028 8.746 12.348 8.746 3.644 0 7.257-1.608 10.174-4.526l44.981-44.98c3.558-3.558 5.13-8.102 4.312-12.466-.819-4.362-3.928-8.028-8.532-10.056l-88.467-38.973c-2.233-.983-4.336-1.482-6.25-1.482-3.201 0-5.959 1.415-7.568 3.882-1.357 2.081-2.454 5.747.031 11.389zM484.46 421.18c-2.412-5.477-7.027-8.746-12.346-8.746-3.645 0-7.259 1.609-10.177 4.527l-44.981 44.98c-3.558 3.559-5.13 8.104-4.312 12.466s3.929 8.028 8.532 10.055l88.466 38.974c2.233.983 4.336 1.482 6.25 1.482 3.201 0 5.959-1.417 7.568-3.882 1.358-2.083 2.455-5.748-.03-11.389zM461.94 195.04c2.918 2.918 6.532 4.526 10.176 4.526 5.319 0 9.934-3.269 12.348-8.746l38.972-88.465c2.486-5.643 1.389-9.308.031-11.389-1.609-2.467-4.367-3.882-7.568-3.882-1.914 0-4.017.499-6.251 1.483l-88.466 38.97c-4.604 2.029-7.715 5.694-8.532 10.057s.754 8.908 4.312 12.466zM150.06 416.96c-2.918-2.918-6.532-4.527-10.177-4.527-5.319 0-9.934 3.269-12.346 8.746l-38.972 88.465c-2.486 5.643-1.389 9.308-.031 11.39 1.609 2.466 4.368 3.882 7.568 3.882 1.914 0 4.017-.499 6.251-1.484l88.466-38.972c4.604-2.028 7.715-5.694 8.532-10.056s-.753-8.907-4.312-12.466zM603.74 296.25l-90.111-34.996c-1.942-.755-3.896-1.137-5.806-1.137-7.593 0-13.104 5.921-13.104 14.078l.001 63.613c0 8.157 5.511 14.078 13.104 14.078 1.912 0 3.866-.382 5.806-1.136l90.112-34.999c7.182-2.79 8.254-7.306 8.254-9.751 0-2.443-1.075-6.961-8.256-9.75M104.17 351.89c7.594 0 13.106-5.921 13.106-14.078v-63.613c0-8.157-5.511-14.078-13.106-14.078-1.912 0-3.864.382-5.805 1.136L8.252 296.255c-7.182 2.789-8.255 7.305-8.255 9.75 0 2.444 1.072 6.96 8.255 9.752l90.111 34.996c1.942.754 3.895 1.137 5.807 1.137"></path></symbol><symbol id="icon-linkedin" viewBox="0 0 448 512"><path d="M100.3 448H7.4V148.9h92.9zM53.8 108.1C24.1 108.1 0 83.5 0 53.8a53.8 53.8 0 0 1 107.6 0c0 29.7-24.1 54.3-53.8 54.3M447.9 448h-92.7V302.4c0-34.7-.7-79.2-48.3-79.2-48.3 0-55.7 37.7-55.7 76.7V448h-92.8V148.9h89.1v40.8h1.3c12.4-23.5 42.7-48.3 87.9-48.3 94 0 111.3 61.9 111.3 142.3V448z"></path></symbol><symbol id="icon-mastodon" viewBox="0 0 448 512"><path d="M433 179.1c0-97.2-63.7-125.7-63.7-125.7-62.5-28.7-228.6-28.4-290.5 0 0 0-63.7 28.5-63.7 125.7 0 115.7-6.6 259.4 105.6 289.1 40.5 10.7 75.3 13 103.3 11.4 50.8-2.8 79.3-18.1 79.3-18.1l-1.7-36.9s-36.3 11.4-77.1 10.1c-40.4-1.4-83-4.4-89.6-54a102.5 102.5 0 0 1-.9-13.9c85.6 20.9 158.7 9.1 178.8 6.7 56.1-6.7 105-41.3 111.2-72.9 9.8-49.8 9-121.5 9-121.5m-75.1 125.2h-46.6V190.1c0-49.7-64-51.6-64 6.9v62.5H201V197c0-58.5-64-56.6-64-6.9v114.2H90.2c0-122.1-5.2-147.9 18.4-175 25.9-28.9 79.8-30.8 103.8 6.1l11.6 19.5 11.6-19.5c24.1-37.1 78.1-34.8 103.8-6.1 23.7 27.3 18.4 53 18.4 175z"></path></symbol><symbol id="icon-pixelfed" viewBox="-10 -5 1034 1034"><path d="M500 176q-115 0-215 58-96 57-152 153-58 99-58 214.5T133 816q56 96 152 152 100 58 215 58t215-58q96-56 152-152 58-99 58-214.5T867 387q-56-96-152-153-100-58-215-58m-68 259h112q36 0 66.5 17.5t48.5 47 18 65-18 65-48.5 47T544 694h-78L355 800V510q0-31 22.5-53t54.5-22"></path></symbol><symbol id="icon-rss" viewBox="0 0 8 8"><rect width="8" height="8" fill="orange" rx="1.5"></rect><circle cx="2" cy="6" r="1" fill="#fff" class="d867__symbol"></circle><path fill="#fff" d="M1 4a3 3 0 0 1 3 3h1a4 4 0 0 0-4-4z" class="d867__symbol"></path><path fill="#fff" d="M1 2a5 5 0 0 1 5 5h1a6 6 0 0 0-6-6z" class="d867__symbol"></path></symbol><symbol id="icon-spotify" viewBox="0 0 496 512"><path d="M248 8C111.1 8 0 119.1 0 256s111.1 248 248 248 248-111.1 248-248S384.9 8 248 8m100.7 364.9c-4.2 0-6.8-1.3-10.7-3.6-62.4-37.6-135-39.2-206.7-24.5-3.9 1-9 2.6-11.9 2.6-9.7 0-15.8-7.7-15.8-15.8 0-10.3 6.1-15.2 13.6-16.8 81.9-18.1 165.6-16.5 237 26.2 6.1 3.9 9.7 7.4 9.7 16.5s-7.1 15.4-15.2 15.4m26.9-65.6c-5.2 0-8.7-2.3-12.3-4.2-62.5-37-155.7-51.9-238.6-29.4-4.8 1.3-7.4 2.6-11.9 2.6-10.7 0-19.4-8.7-19.4-19.4s5.2-17.8 15.5-20.7c27.8-7.8 56.2-13.6 97.8-13.6 64.9 0 127.6 16.1 177 45.5 8.1 4.8 11.3 11 11.3 19.7-.1 10.8-8.5 19.5-19.4 19.5m31-76.2c-5.2 0-8.4-1.3-12.9-3.9-71.2-42.5-198.5-52.7-280.9-29.7-3.6 1-8.1 2.6-12.9 2.6-13.2 0-23.3-10.3-23.3-23.6 0-13.6 8.4-21.3 17.4-23.9 35.2-10.3 74.6-15.2 117.5-15.2 73 0 149.5 15.2 205.4 47.8 7.8 4.5 12.9 10.7 12.9 22.6 0 13.6-11 23.3-23.2 23.3"></path></symbol><symbol id="icon-twtxt" viewBox="0 0 263.1 69"><path d="M23.4 0v17.2h31.9l9.2 36.3h1.3l10.9-36.3h15.8l10.9 36.3h1.4l9-36.3h25.4L147.6 0h9.8v17.2h34l7.3 20.3h1.2l6.4-20.3H234L242.4 0h9.8v17.2h10.9V29h-10.9v28.3h10.9V69h-17.6q-5.8 0-8.65-2.6T234 57.1V29h-13.013L215.9 42.6 227.1 69h-20.9l-7.3-20.5h-1.2L189.3 69h-19.6l12.4-26.4-5.408-13.6H157.4v28.3h10.9V69h-17.6q-5.8 0-8.65-2.6t-2.85-9.3V29h-10.65L115.5 69H94.2l-9.7-31.9h-1L73.7 69H52.5L39.45 29H23.4v28.3h10.9V69H16.7q-5.8 0-8.65-2.6T5.2 57.1V29H0V17.2h5.2L13.6 0z"></path></symbol><symbol id="icon-up-to-bracket" viewBox="0 0 448 512"><path d="M0 0v192h64V64h320v128h64V0H0" class="c834__fa-secondary" opacity=".4"></path><path d="M224 160 64 320v32h96v160h128V352h96v-32z" class="4078__fa-primary"></path></symbol><symbol id="icon-x" viewBox="0 0 512 512"><path d="M389.2 48h70.6L305.6 224.2 487 464H345L233.7 318.6 106.5 464H35.8l164.9-188.5L26.8 48h145.6l100.5 132.9zm-24.8 373.8h39.1L151.1 88h-42z"></path></symbol></svg>