<svg xmlns="http://www.w3.org/2000/svg" aria-hidden="true" style="width: 0; height: 0; position: absolute;"><symbol id="icon-clipboard" viewBox="0 0 384 512"><path d="M280 64h40c35.3 0 64 28.7 64 64v320c0 35.3-28.7 64-64 64H64c-35.3 0-64-28.7-64-64V128c0-35.3 28.7-64 64-64h49.6C121 27.5 153.3 0 192 0s71 27.5 78.4 64zM64 112c-8.8 0-16 7.2-16 16v320c0 8.8 7.2 16 16 16h256c8.8 0 16-7.2 16-16V128c0-8.8-7.2-16-16-16h-16v24c0 13.3-10.7 24-24 24H104c-13.3 0-24-10.7-24-24v-24zm128-8a24 24 0 1 0 0-48 24 24 0 1 0 0 48"></path></symbol><symbol id="icon-facebook" viewBox="0 0 320 512"><path d="M80 299.3V512h116V299.3h86.5l18-97.8H196v-34.6c0-51.7 20.3-71.5 72.7-71.5 16.3 0 29.4.4 37 1.2V7.9C291.4 4 256.4 0 236.2 0 129.3 0 80 50.5 80 159.4v42.1H14v97.8z"></path></symbol><symbol id="icon-flickr" viewBox="0 0 448 512"><path d="M400 32H48C21.5 32 0 53.5 0 80v352c0 26.5 21.5 48 48 48h352c26.5 0 48-21.5 48-48V80c0-26.5-21.5-48-48-48M144.5 319c-35.1 0-63.5-28.4-63.5-63.5s28.4-63.5 63.5-63.5 63.5 28.4 63.5 63.5-28.4 63.5-63.5 63.5m159 0c-35.1 0-63.5-28.4-63.5-63.5s28.4-63.5 63.5-63.5 63.5 28.4 63.5 63.5-28.4 63.5-63.5 63.5"></path></symbol><symbol id="icon-github" viewBox="0 0 496 512"><path d="M165.9 397.4c0 2-2.3 3.6-5.2 3.6-3.3.3-5.6-1.3-5.6-3.6 0-2 2.3-3.6 5.2-3.6 3-.3 5.6 1.3 5.6 3.6m-31.1-4.5c-.7 2 1.3 4.3 4.3 4.9 2.6 1 5.6 0 6.2-2s-1.3-4.3-4.3-5.2c-2.6-.7-5.5.3-6.2 2.3m44.2-1.7c-2.9.7-4.9 2.6-4.6 4.9.3 2 2.9 3.3 5.9 2.6 2.9-.7 4.9-2.6 4.6-4.6-.3-1.9-3-3.2-5.9-2.9M244.8 8C106.1 8 0 113.3 0 252c0 110.9 69.8 205.8 169.5 239.2 12.8 2.3 17.3-5.6 17.3-12.1 0-6.2-.3-40.4-.3-61.4 0 0-70 15-84.7-29.8 0 0-11.4-29.1-27.8-36.6 0 0-22.9-15.7 1.6-15.4 0 0 24.9 2 38.6 25.8 21.9 38.6 58.6 27.5 72.9 20.9 2.3-16 8.8-27.1 16-33.7-55.9-6.2-112.3-14.3-112.3-110.5 0-27.5 7.6-41.3 23.6-58.9-2.6-6.5-11.1-33.3 2.6-67.9 20.9-6.5 69 27 69 27 20-5.6 41.5-8.5 62.8-8.5s42.8 2.9 62.8 8.5c0 0 48.1-33.6 69-27 13.7 34.7 5.2 61.4 2.6 67.9 16 17.7 25.8 31.5 25.8 58.9 0 96.5-58.9 104.2-114.8 110.5 9.2 7.9 17 22.9 17 46.4 0 33.7-.3 75.4-.3 83.6 0 6.5 4.6 14.4 17.3 12.1C428.2 457.8 496 362.9 496 252 496 113.3 383.5 8 244.8 8M97.2 352.9c-1.3 1-1 3.3.7 5.2 1.6 1.6 3.9 2.3 5.2 1 1.3-1 1-3.3-.7-5.2-1.6-1.6-3.9-2.3-5.2-1m-10.8-8.1c-.7 1.3.3 2.9 2.3 3.9 1.6 1 3.6.7 4.3-.7.7-1.3-.3-2.9-2.3-3.9-2-.6-3.6-.3-4.3.7m32.4 35.6c-1.6 1.3-1 4.3 1.3 6.2 2.3 2.3 5.2 2.6 6.5 1 1.3-1.3.7-4.3-1.3-6.2-2.2-2.3-5.2-2.6-6.5-1m-11.4-14.7c-1.6 1-1.6 3.6 0 5.9s4.3 3.3 5.6 2.3c1.6-1.3 1.6-3.9 0-6.2-1.4-2.3-4-3.3-5.6-2"></path></symbol><symbol id="icon-hackernews" viewBox="0 0 448 512"><path d="M448 96c0-35.3-28.7-64-64-64H64C28.7 32 0 60.7 0 96v320c0 35.3 28.7 64 64 64h320c35.3 0 64-28.7 64-64zM21 229.2s.1-.1.1-.2.1-.2.2-.2c0 .1 0 .3-.1.4zM239.2 384h-31.4V281.3L128 128h37.3c41.5 77.7 48.1 95.8 54.1 112 1.6 4.3 3.1 8.5 5.2 13.6 3.2-7 5.1-11.9 7.1-17.3 5.9-15.3 12.8-33.2 53.5-108.3H320l-80.8 155.1z"></path></symbol><symbol id="icon-json-feed" viewBox="0 0 512 512"><rect width="512" height="512" fill="#8be028" rx="15%"></rect><g fill="#fff"><circle cx="386.53" cy="125.5" r="27.5"></circle><circle cx="326.53" cy="185.5" r="27.5"></circle><circle cx="266.53" cy="245.5" r="27.5"></circle></g><path fill="#497715" d="M118 96s-53.5 42-52.5 87c.6 25.2 22.5 45 39.5 64s41 32 46 59c3 16-10 22-19 35-10.7 15.4 7 32 7 32s16.6 17.7 32 7c13-9 19-22 35-19 27 5 40 29 59 46s38.8 38.9 64 39.5c45 1 87-52.5 87-52.5l-29-29s-23 27-43 27c-45.5-8.6-61.1-59.5-100-77-29-12-45.7 12.6-53 6-6.6-7.3 18-24 6-53-17.5-38.9-68.4-54.5-77-100 0-20 27-43 27-43z"></path></symbol><symbol id="icon-left-to-line" viewBox="0 0 448 512"><!--!Font Awesome Pro 6.6.0 by @fontawesome - https://fontawesome.com License - https://fontawesome.com/license (Commercial License) Copyright 2024 Fonticons, Inc.--><path d="M256 416 96 256 256 96h32v96h160v128H288v96zM64 96v352H0V64h64z"></path></symbol><symbol id="icon-left" viewBox="0 0 448 512"><!--!Font Awesome Pro 6.6.0 by @fontawesome - https://fontawesome.com License - https://fontawesome.com/license (Commercial License) Copyright 2024 Fonticons, Inc.--><path d="m0 256 192 192h32V320h224V192H224V64h-32z"></path></symbol><symbol id="icon-linkedin" viewBox="0 0 448 512"><path d="M100.3 448H7.4V148.9h92.9zM53.8 108.1C24.1 108.1 0 83.5 0 53.8a53.8 53.8 0 0 1 107.6 0c0 29.7-24.1 54.3-53.8 54.3M447.9 448h-92.7V302.4c0-34.7-.7-79.2-48.3-79.2-48.3 0-55.7 37.7-55.7 76.7V448h-92.8V148.9h89.1v40.8h1.3c12.4-23.5 42.7-48.3 87.9-48.3 94 0 111.3 61.9 111.3 142.3V448z"></path></symbol><symbol id="icon-mastodon" viewBox="0 0 448 512"><path d="M433 179.1c0-97.2-63.7-125.7-63.7-125.7-62.5-28.7-228.6-28.4-290.5 0 0 0-63.7 28.5-63.7 125.7 0 115.7-6.6 259.4 105.6 289.1 40.5 10.7 75.3 13 103.3 11.4 50.8-2.8 79.3-18.1 79.3-18.1l-1.7-36.9s-36.3 11.4-77.1 10.1c-40.4-1.4-83-4.4-89.6-54a102.5 102.5 0 0 1-.9-13.9c85.6 20.9 158.7 9.1 178.8 6.7 56.1-6.7 105-41.3 111.2-72.9 9.8-49.8 9-121.5 9-121.5m-75.1 125.2h-46.6V190.1c0-49.7-64-51.6-64 6.9v62.5H201V197c0-58.5-64-56.6-64-6.9v114.2H90.2c0-122.1-5.2-147.9 18.4-175 25.9-28.9 79.8-30.8 103.8 6.1l11.6 19.5 11.6-19.5c24.1-37.1 78.1-34.8 103.8-6.1 23.7 27.3 18.4 53 18.4 175z"></path></symbol><symbol id="icon-pixelfed" viewBox="-10 -5 1034 1034"><path d="M500 176q-115 0-215 58-96 57-152 153-58 99-58 214.5T133 816q56 96 152 152 100 58 215 58t215-58q96-56 152-152 58-99 58-214.5T867 387q-56-96-152-153-100-58-215-58m-68 259h112q36 0 66.5 17.5t48.5 47 18 65-18 65-48.5 47T544 694h-78L355 800V510q0-31 22.5-53t54.5-22"></path></symbol><symbol id="icon-right-to-line" viewBox="0 0 448 512"><!--!Font Awesome Pro 6.6.0 by @fontawesome - https://fontawesome.com License - https://fontawesome.com/license (Commercial License) Copyright 2024 Fonticons, Inc.--><path d="m192 96 160 160-160 160h-32v-96H0V192h160V96zm192 320V64h64v384h-64z"></path></symbol><symbol id="icon-right" viewBox="0 0 448 512"><!--!Font Awesome Pro 6.6.0 by @fontawesome - https://fontawesome.com License - https://fontawesome.com/license (Commercial License) Copyright 2024 Fonticons, Inc.--><path d="M448 256 256 64h-32v128H0v128h224v128h32z"></path></symbol><symbol id="icon-rss" viewBox="0 0 8 8"><rect width="8" height="8" fill="orange" rx="1.5"></rect><circle cx="2" cy="6" r="1" fill="#fff" class="ffd4__symbol"></circle><path fill="#fff" d="M1 4a3 3 0 0 1 3 3h1a4 4 0 0 0-4-4z" class="ffd4__symbol"></path><path fill="#fff" d="M1 2a5 5 0 0 1 5 5h1a6 6 0 0 0-6-6z" class="ffd4__symbol"></path></symbol><symbol id="icon-spotify" viewBox="0 0 496 512"><path d="M248 8C111.1 8 0 119.1 0 256s111.1 248 248 248 248-111.1 248-248S384.9 8 248 8m100.7 364.9c-4.2 0-6.8-1.3-10.7-3.6-62.4-37.6-135-39.2-206.7-24.5-3.9 1-9 2.6-11.9 2.6-9.7 0-15.8-7.7-15.8-15.8 0-10.3 6.1-15.2 13.6-16.8 81.9-18.1 165.6-16.5 237 26.2 6.1 3.9 9.7 7.4 9.7 16.5s-7.1 15.4-15.2 15.4m26.9-65.6c-5.2 0-8.7-2.3-12.3-4.2-62.5-37-155.7-51.9-238.6-29.4-4.8 1.3-7.4 2.6-11.9 2.6-10.7 0-19.4-8.7-19.4-19.4s5.2-17.8 15.5-20.7c27.8-7.8 56.2-13.6 97.8-13.6 64.9 0 127.6 16.1 177 45.5 8.1 4.8 11.3 11 11.3 19.7-.1 10.8-8.5 19.5-19.4 19.5m31-76.2c-5.2 0-8.4-1.3-12.9-3.9-71.2-42.5-198.5-52.7-280.9-29.7-3.6 1-8.1 2.6-12.9 2.6-13.2 0-23.3-10.3-23.3-23.6 0-13.6 8.4-21.3 17.4-23.9 35.2-10.3 74.6-15.2 117.5-15.2 73 0 149.5 15.2 205.4 47.8 7.8 4.5 12.9 10.7 12.9 22.6 0 13.6-11 23.3-23.2 23.3"></path></symbol><symbol id="icon-twtxt" viewBox="0 0 263.1 69"><path d="M23.4 0v17.2h31.9l9.2 36.3h1.3l10.9-36.3h15.8l10.9 36.3h1.4l9-36.3h25.4L147.6 0h9.8v17.2h34l7.3 20.3h1.2l6.4-20.3H234L242.4 0h9.8v17.2h10.9V29h-10.9v28.3h10.9V69h-17.6q-5.8 0-8.65-2.6T234 57.1V29h-13.013L215.9 42.6 227.1 69h-20.9l-7.3-20.5h-1.2L189.3 69h-19.6l12.4-26.4-5.408-13.6H157.4v28.3h10.9V69h-17.6q-5.8 0-8.65-2.6t-2.85-9.3V29h-10.65L115.5 69H94.2l-9.7-31.9h-1L73.7 69H52.5L39.45 29H23.4v28.3h10.9V69H16.7q-5.8 0-8.65-2.6T5.2 57.1V29H0V17.2h5.2L13.6 0z"></path></symbol><symbol id="icon-up-to-bracket" viewBox="0 0 448 512"><path d="M0 0v192h64V64h320v128h64V0H0" class="dc7f__fa-secondary" opacity=".4"></path><path d="M224 160 64 320v32h96v160h128V352h96v-32z" class="5788__fa-primary"></path></symbol><symbol id="icon-x" viewBox="0 0 512 512"><path d="M389.2 48h70.6L305.6 224.2 487 464H345L233.7 318.6 106.5 464H35.8l164.9-188.5L26.8 48h145.6l100.5 132.9zm-24.8 373.8h39.1L151.1 88h-42z"></path></symbol></svg>