<svg xmlns="http://www.w3.org/2000/svg" aria-hidden="true" style="width: 0; height: 0; position: absolute;"><symbol id="icon-arrow-up" viewBox="0 0 1000 1000"><path d="M990 699.9c0 8.1 0 16.3-8.1 24.4-16.3 16.3-40.7 16.3-56.9 0L502 350.2 79.1 732.4c-16.3 16.3-40.7 16.3-56.9 0-16.3-16.3-16.3-40.7 0-56.9l447.3-406.6c24.4-16.3 40.7-16.3 56.9-8.1l447.3 406.6c8.2 8.1 16.3 24.4 16.3 32.5" class="65d4__fillable"></path></symbol><symbol id="icon-clipboard" viewBox="0 0 384 512"><path d="M280 64h40c35.3 0 64 28.7 64 64v320c0 35.3-28.7 64-64 64H64c-35.3 0-64-28.7-64-64V128c0-35.3 28.7-64 64-64h49.6C121 27.5 153.3 0 192 0s71 27.5 78.4 64zM64 112c-8.8 0-16 7.2-16 16v320c0 8.8 7.2 16 16 16h256c8.8 0 16-7.2 16-16V128c0-8.8-7.2-16-16-16h-16v24c0 13.3-10.7 24-24 24H104c-13.3 0-24-10.7-24-24v-24zm128-8a24 24 0 1 0 0-48 24 24 0 1 0 0 48"></path></symbol><symbol id="icon-dark-toggle" viewBox="0 0 455 455"><path d="m320.18 162.7-39.55 8.35 27.09 30-4.28 40.19 36.9-16.49 36.9 16.49-4.28-40.19 27.09-30-39.55-8.35-20.16-35.03zM440 325.68l-25.91-5.47-13.21-22.96-13.2 22.96-25.91 5.47 17.74 19.65-2.8 26.33 24.17-10.8 24.18 10.8-2.81-26.33z"></path><path d="M218 227.5c0-89.167 51.306-166.34 126-203.64C313.443 8.6 278.978 0 242.5 0 116.86 0 15 101.86 15 227.5S116.86 455 242.5 455c36.478 0 70.943-8.6 101.5-23.86-74.694-37.302-126-114.47-126-203.64"></path></symbol><symbol id="icon-facebook" viewBox="0 0 320 512"><path d="M80 299.3V512h116V299.3h86.5l18-97.8H196v-34.6c0-51.7 20.3-71.5 72.7-71.5 16.3 0 29.4.4 37 1.2V7.9C291.4 4 256.4 0 236.2 0 129.3 0 80 50.5 80 159.4v42.1H14v97.8z"></path></symbol><symbol id="icon-hackernews" viewBox="0 0 448 512"><path d="M448 96c0-35.3-28.7-64-64-64H64C28.7 32 0 60.7 0 96v320c0 35.3 28.7 64 64 64h320c35.3 0 64-28.7 64-64zM21 229.2s.1-.1.1-.2.1-.2.2-.2c0 .1 0 .3-.1.4zM239.2 384h-31.4V281.3L128 128h37.3c41.5 77.7 48.1 95.8 54.1 112 1.6 4.3 3.1 8.5 5.2 13.6 3.2-7 5.1-11.9 7.1-17.3 5.9-15.3 12.8-33.2 53.5-108.3H320l-80.8 155.1z"></path></symbol><symbol id="icon-json-feed" viewBox="0 0 512 512"><rect width="512" height="512" fill="#8be028" rx="15%"></rect><g fill="#fff"><circle cx="386.53" cy="125.5" r="27.5"></circle><circle cx="326.53" cy="185.5" r="27.5"></circle><circle cx="266.53" cy="245.5" r="27.5"></circle></g><path fill="#497715" d="M118 96s-53.5 42-52.5 87c.6 25.2 22.5 45 39.5 64s41 32 46 59c3 16-10 22-19 35-10.7 15.4 7 32 7 32s16.6 17.7 32 7c13-9 19-22 35-19 27 5 40 29 59 46s38.8 38.9 64 39.5c45 1 87-52.5 87-52.5l-29-29s-23 27-43 27c-45.5-8.6-61.1-59.5-100-77-29-12-45.7 12.6-53 6-6.6-7.3 18-24 6-53-17.5-38.9-68.4-54.5-77-100 0-20 27-43 27-43z"></path></symbol><symbol id="icon-light-toggle" viewBox="0 0 612 612"><path d="M306 149.34c-86.382 0-156.66 70.278-156.66 156.66S219.618 462.66 306 462.66 462.66 392.382 462.66 306c0-86.384-70.278-156.66-156.66-156.66M274.19 117.28h63.612c5.032 0 9.356-2.101 11.863-5.763 2.508-3.662 2.9-8.453 1.079-13.146L315.745 8.259c-2.789-7.184-7.305-8.256-9.749-8.256s-6.96 1.073-9.749 8.255l-35 90.114c-1.821 4.692-1.427 9.482 1.079 13.145s6.832 5.763 11.864 5.763M337.81 494.72h-63.612c-5.032 0-9.357 2.102-11.863 5.764s-2.9 8.453-1.079 13.145l34.999 90.114c2.789 7.182 7.305 8.254 9.749 8.254s6.96-1.072 9.749-8.254l34.999-90.115c1.821-4.69 1.429-9.48-1.079-13.144-2.507-3.662-6.831-5.764-11.863-5.764M127.54 190.82c2.412 5.477 7.028 8.746 12.348 8.746 3.644 0 7.257-1.608 10.174-4.526l44.981-44.98c3.558-3.558 5.13-8.102 4.312-12.466-.819-4.362-3.928-8.028-8.532-10.056l-88.467-38.973c-2.233-.983-4.336-1.482-6.25-1.482-3.201 0-5.959 1.415-7.568 3.882-1.357 2.081-2.454 5.747.031 11.389zM484.46 421.18c-2.412-5.477-7.027-8.746-12.346-8.746-3.645 0-7.259 1.609-10.177 4.527l-44.981 44.98c-3.558 3.559-5.13 8.104-4.312 12.466s3.929 8.028 8.532 10.055l88.466 38.974c2.233.983 4.336 1.482 6.25 1.482 3.201 0 5.959-1.417 7.568-3.882 1.358-2.083 2.455-5.748-.03-11.389zM461.94 195.04c2.918 2.918 6.532 4.526 10.176 4.526 5.319 0 9.934-3.269 12.348-8.746l38.972-88.465c2.486-5.643 1.389-9.308.031-11.389-1.609-2.467-4.367-3.882-7.568-3.882-1.914 0-4.017.499-6.251 1.483l-88.466 38.97c-4.604 2.029-7.715 5.694-8.532 10.057s.754 8.908 4.312 12.466zM150.06 416.96c-2.918-2.918-6.532-4.527-10.177-4.527-5.319 0-9.934 3.269-12.346 8.746l-38.972 88.465c-2.486 5.643-1.389 9.308-.031 11.39 1.609 2.466 4.368 3.882 7.568 3.882 1.914 0 4.017-.499 6.251-1.484l88.466-38.972c4.604-2.028 7.715-5.694 8.532-10.056s-.753-8.907-4.312-12.466zM603.74 296.25l-90.111-34.996c-1.942-.755-3.896-1.137-5.806-1.137-7.593 0-13.104 5.921-13.104 14.078l.001 63.613c0 8.157 5.511 14.078 13.104 14.078 1.912 0 3.866-.382 5.806-1.136l90.112-34.999c7.182-2.79 8.254-7.306 8.254-9.751 0-2.443-1.075-6.961-8.256-9.75M104.17 351.89c7.594 0 13.106-5.921 13.106-14.078v-63.613c0-8.157-5.511-14.078-13.106-14.078-1.912 0-3.864.382-5.805 1.136L8.252 296.255c-7.182 2.789-8.255 7.305-8.255 9.75 0 2.444 1.072 6.96 8.255 9.752l90.111 34.996c1.942.754 3.895 1.137 5.807 1.137"></path></symbol><symbol id="icon-linkedin" viewBox="0 0 448 512"><path d="M100.3 448H7.4V148.9h92.9zM53.8 108.1C24.1 108.1 0 83.5 0 53.8a53.8 53.8 0 0 1 107.6 0c0 29.7-24.1 54.3-53.8 54.3M447.9 448h-92.7V302.4c0-34.7-.7-79.2-48.3-79.2-48.3 0-55.7 37.7-55.7 76.7V448h-92.8V148.9h89.1v40.8h1.3c12.4-23.5 42.7-48.3 87.9-48.3 94 0 111.3 61.9 111.3 142.3V448z"></path></symbol><symbol id="icon-mastodon" viewBox="0 0 448 512"><path d="M433 179.1c0-97.2-63.7-125.7-63.7-125.7-62.5-28.7-228.6-28.4-290.5 0 0 0-63.7 28.5-63.7 125.7 0 115.7-6.6 259.4 105.6 289.1 40.5 10.7 75.3 13 103.3 11.4 50.8-2.8 79.3-18.1 79.3-18.1l-1.7-36.9s-36.3 11.4-77.1 10.1c-40.4-1.4-83-4.4-89.6-54a102.5 102.5 0 0 1-.9-13.9c85.6 20.9 158.7 9.1 178.8 6.7 56.1-6.7 105-41.3 111.2-72.9 9.8-49.8 9-121.5 9-121.5m-75.1 125.2h-46.6V190.1c0-49.7-64-51.6-64 6.9v62.5H201V197c0-58.5-64-56.6-64-6.9v114.2H90.2c0-122.1-5.2-147.9 18.4-175 25.9-28.9 79.8-30.8 103.8 6.1l11.6 19.5 11.6-19.5c24.1-37.1 78.1-34.8 103.8-6.1 23.7 27.3 18.4 53 18.4 175z"></path></symbol><symbol id="icon-rss" viewBox="0 0 8 8"><rect width="8" height="8" fill="orange" rx="1.5"></rect><circle cx="2" cy="6" r="1" fill="#fff" class="9130__symbol"></circle><path fill="#fff" d="M1 4a3 3 0 0 1 3 3h1a4 4 0 0 0-4-4z" class="9130__symbol"></path><path fill="#fff" d="M1 2a5 5 0 0 1 5 5h1a6 6 0 0 0-6-6z" class="9130__symbol"></path></symbol><symbol id="icon-twtxt" viewBox="0 0 263.1 69"><path d="M23.4 0v17.2h31.9l9.2 36.3h1.3l10.9-36.3h15.8l10.9 36.3h1.4l9-36.3h25.4L147.6 0h9.8v17.2h34l7.3 20.3h1.2l6.4-20.3H234L242.4 0h9.8v17.2h10.9V29h-10.9v28.3h10.9V69h-17.6q-5.8 0-8.65-2.6T234 57.1V29h-13.013L215.9 42.6 227.1 69h-20.9l-7.3-20.5h-1.2L189.3 69h-19.6l12.4-26.4-5.408-13.6H157.4v28.3h10.9V69h-17.6q-5.8 0-8.65-2.6t-2.85-9.3V29h-10.65L115.5 69H94.2l-9.7-31.9h-1L73.7 69H52.5L39.45 29H23.4v28.3h10.9V69H16.7q-5.8 0-8.65-2.6T5.2 57.1V29H0V17.2h5.2L13.6 0z"></path></symbol><symbol id="icon-x" viewBox="0 0 512 512"><path d="M389.2 48h70.6L305.6 224.2 487 464H345L233.7 318.6 106.5 464H35.8l164.9-188.5L26.8 48h145.6l100.5 132.9zm-24.8 373.8h39.1L151.1 88h-42z"></path></symbol></svg>